<svg width="30" height="30" viewBox="0 0 30 30" fill="none" xmlns="http://www.w3.org/2000/svg">
<path d="M29.6995 8.63938C29.6995 8.53919 29.399 6.33556 28.4474 5.28381C27.2955 4.03174 26.0434 3.88149 25.3924 3.83137H25.192C21.1353 3.53087 15.0752 3.4808 14.975 3.4808C14.925 3.4808 8.81476 3.53087 4.80807 3.93156H4.65782C3.95657 3.98162 2.70451 4.13187 1.60269 5.38394C0.601001 6.43569 0.300501 8.68944 0.300501 8.78963C0.300501 8.78963 0 11.3439 0 13.8981V16.2521C0 18.7563 0.300501 21.3105 0.300501 21.3606C0.300501 21.4608 0.601001 23.6644 1.55257 24.7162C2.60432 25.9182 3.85639 26.0684 4.65776 26.1686C4.80801 26.1686 4.9082 26.1686 5.05845 26.2187C7.36227 26.419 14.6745 26.5192 14.975 26.5192C15.025 26.5192 21.1352 26.5192 25.192 26.0684H25.3422C26.0434 26.0184 27.2955 25.8681 28.3973 24.616C29.399 23.5642 29.6995 21.3105 29.6995 21.2103C29.6995 21.2103 30 18.656 30 16.1018V13.7479C30 11.2437 29.6995 8.68944 29.6995 8.63938ZM28.9983 16.202C28.9983 18.7061 28.6978 21.2103 28.6978 21.2103C28.5976 21.7612 28.2971 23.3639 27.6461 24.065C26.7946 25.0667 25.793 25.1669 25.2421 25.217H25.0918C21.0851 25.5175 15.025 25.5175 14.975 25.5175C14.9249 25.5175 7.41239 25.4173 5.2087 25.1669C5.05845 25.1669 4.9082 25.1168 4.75795 25.1168C4.05676 25.0668 3.05513 24.9165 2.25375 24.015C1.65275 23.364 1.30219 21.7613 1.25207 21.2103C1.25207 21.1603 0.951566 18.6561 0.951566 16.202V13.8481C0.951566 11.3439 1.25207 8.83975 1.25207 8.83975C1.30213 8.28881 1.65275 6.68618 2.25375 5.985C3.15526 4.98331 4.10682 4.88312 4.70782 4.83306H4.85807C8.86477 4.53256 14.9248 4.48249 14.9749 4.48249C15.025 4.48249 21.0851 4.53256 25.0917 4.83306H25.2921C25.843 4.88312 26.8446 4.98331 27.6961 5.985C28.2971 6.68618 28.5976 8.28881 28.6978 8.83975C28.7478 8.93994 28.9983 11.4441 28.9983 13.8481V16.202H28.9983Z" fill="white"/>
<path d="M21.2353 15.0501L11.7195 9.4908C11.5693 9.39062 11.3689 9.39062 11.2187 9.4908C11.0684 9.59099 10.9683 9.74124 10.9683 9.94156V20.8097C10.9683 21.01 11.0684 21.1602 11.2187 21.2604C11.3189 21.3105 11.3689 21.3105 11.4691 21.3105C11.5693 21.3105 11.6194 21.3105 11.7196 21.2604L21.2354 15.9516C21.3857 15.8514 21.4858 15.7011 21.4858 15.5008C21.4858 15.3005 21.3856 15.1502 21.2353 15.0501ZM11.97 19.9582V10.7929L19.9833 15.5008L11.97 19.9582Z" fill="white"/>
</svg>
